<!-- wreath.svg -->
<svg
  version="1.0"
  id="Layer_1"
  xmlns="http://www.w3.org/2000/svg"
  xmlns:xlink="http://www.w3.org/1999/xlink"
  viewBox="0 0 64 64"
  enable-background="new 0 0 64 64"
  xml:space="preserve"
>
  <g id="Wreath">
    <circle fill="#91C11E" cx="32" cy="32" r="30" />
    <path
      fill="#79A70A"
      d="M37.637,5.384c0.446-0.656,0.842-1.351,1.177-2.079C37.365,2.401,34.759,2,32,2
        c-1.347,0-2.656,0.104-3.923,0.294c-0.208,0.736-0.433,1.459-0.676,2.158c3.623-0.304,7.194,0.308,10.521,1.635L37.637,5.384z"
    />
    <path
      fill="#79A70A"
      d="M26.451,2.623c-0.246-0.698-0.515-1.384-0.81-2.056C23.596,0.285,20.799,0,18,0
        c-2.016,0-4.011,0.143-5.973,0.418c0.498,0.633,0.987,1.279,1.466,1.934c4.898-0.386,9.768,0.579,14.325,2.824L26.451,2.623z"
    />
    <path
      fill="#79A70A"
      d="M51.051,11.879c0.705,0.494,1.396,1.016,2.074,1.564C53.588,10.317,51.437,8.116,49,6.356
        c-1.243,0.847-2.463,1.744-3.655,2.693C47.646,9.663,49.402,10.645,51.051,11.879z"
    />
    <path
      fill="#79A70A"
      d="M58.978,29.388c0.744,0.19,1.473,0.426,2.192,0.702C61.887,23.589,59.316,17.787,55,13.257
        c-0.929,1.105-1.859,2.211-2.776,3.325C55.055,20.663,57.389,25.188,58.978,29.388z"
    />
    <path
      fill="#79A70A"
      d="M59.581,36.58c0.631,0.396,1.241,0.839,1.83,1.327C60.646,34.504,59.331,30.885,57,27.639
        c-1.087,0.977-2.156,1.994-3.202,3.048C55.407,32.336,57.314,34.56,59.581,36.58z"
    />
    <path
      fill="#79A70A"
      d="M53.581,54.317c-0.456,0.665-0.951,1.312-1.488,1.938C55.015,60.042,58.451,62,62,62
        c0.307,0,0.612-0.014,0.917-0.034c-0.523-0.723-1.041-1.457-1.547-2.203c-5.19-0.708-10.329-2.734-15.062-5.97
        L53.581,54.317z"
    />
    <path
      fill="#79A70A"
      d="M36.843,60.297c-0.464,0.216-0.936,0.413-1.411,0.607c0.391,1.12,0.869,2.196,1.419,3.22
        c0.514-0.209,1.021-0.442,1.529-0.668C37.913,62.364,37.383,61.357,36.843,60.297z"
    />
    <path
      fill="#79A70A"
      d="M17.63,53.758c-0.641,0.221-1.287,0.425-1.938,0.61c0.369,1.142,0.823,2.245,1.353,3.299
        c0.7-0.201,1.392-0.437,2.083-0.668C18.518,56.207,18.053,54.998,17.63,53.758z"
    />
    <path
      fill="#79A70A"
      d="M7.257,43.521c-0.646,0.019-1.296,0.01-1.944-0.027c0.015,1.172,0.093,2.334,0.232,3.485
        c0.715,0.038,1.432,0.067,2.151,0.09C7.511,45.935,7.376,44.733,7.257,43.521z"
    />
    <path
      fill="#79A70A"
      d="M2.855,23.621c-0.657-0.308-1.313-0.632-1.971-0.956C0.304,24.241,0,25.11,0,26
        c0,1.108,0.389,2.235,1.16,3.355c0.681,0.362,1.369,0.715,2.065,1.063C3.215,28.343,3.021,25.982,2.855,23.621z"
    />
    <path
      fill="#79A70A"
      d="M10.512,13.463c-0.679-0.526-1.358-1.061-2.04-1.598C6.548,14.538,5.301,17.267,5,20.1
        c0.934,0.588,1.885,1.154,2.854,1.698C8.432,18.946,9.413,16.136,10.512,13.463z"
    />
    <path
      fill="#79A70A"
      d="M22.711,4.266c-0.598-0.278-1.195-0.568-1.793-0.85C17.838,6.023,16.251,8.654,15,11.489
        c0.901,0.421,1.808,0.835,2.721,1.234C18.881,10.166,20.763,7.086,22.711,4.266z"
    />
    <path
      fill="#79A70A"
      d="M35.825,0.065c-0.493-0.043-0.985-0.09-1.477-0.128c-0.307,1.16-0.648,2.303-1.027,3.426
        c0.471,0.02,0.941,0.042,1.413,0.071C34.9,2.678,35.369,1.371,35.825,0.065z"
    />
    <path
      fill="#79A70A"
      d="M61.145,23.621c-0.166,2.361-0.36,4.722-0.57,7.076c0.696,0.348,1.384,0.701,2.065,1.063
        C63.611,28.235,64,27.108,64,26C64,25.11,63.696,24.241,61.145,23.621z"
    />
    <path
      fill="#79A70A"
      d="M11.076,36.027c-0.274-0.669-0.569-1.332-0.878-1.992c-0.994,0.661-2.018,1.311-3.072,1.939
        c0.208,1.188,0.454,2.368,0.737,3.539C8.624,38.417,9.816,37.223,11.076,36.027z"
    />
  </g>
</svg>
